<?xml version="1.0" standalone="no"?>
<!DOCTYPE svg PUBLIC "-//W3C//DTD SVG 20010904//EN"
 "http://www.w3.org/TR/2001/REC-SVG-20010904/DTD/svg10.dtd">
<svg version="1.0" xmlns="http://www.w3.org/2000/svg"
 width="3000.000000pt" height="3000.000000pt" viewBox="0 0 3000.000000 3000.000000"
 preserveAspectRatio="xMidYMid meet">

<g transform="translate(0.000000,3000.000000) scale(0.100000,-0.100000)"
fill="#000000" stroke="none">
<path d="M11345 18219 c-561 -49 -1084 -342 -1419 -794 -103 -138 -134 -190
-206 -340 -93 -193 -147 -377 -180 -612 -15 -107 -12 -393 5 -519 79 -565 394
-1068 870 -1388 583 -392 1347 -443 1980 -132 228 111 390 231 571 419 291
302 468 665 535 1097 19 122 17 448 -4 580 -165 1045 -1104 1782 -2152 1689z
m560 -199 c281 -60 541 -183 757 -358 107 -87 283 -273 361 -382 74 -105 192
-334 230 -450 66 -199 87 -340 87 -600 0 -344 -47 -555 -182 -826 -91 -181
-172 -292 -331 -453 -220 -223 -425 -356 -692 -450 -289 -102 -690 -127 -1007
-61 -409 85 -774 318 -1060 676 -162 203 -288 484 -339 754 -26 136 -36 436
-20 581 24 204 76 389 160 564 94 198 197 342 361 506 301 302 617 458 1055
523 17 2 140 3 275 1 204 -3 262 -7 345 -25z"/>
<path d="M11383 17959 c-481 -37 -943 -288 -1231 -667 -181 -237 -284 -471
-343 -777 -9 -46 -14 -145 -14 -290 0 -190 4 -235 23 -330 138 -667 632 -1187
1280 -1349 670 -168 1358 68 1792 614 194 244 317 546 355 873 22 185 18 306
-16 507 -49 285 -192 588 -382 811 -363 425 -910 652 -1464 608z m375 -135
c124 -18 304 -71 413 -121 l79 -36 0 -448 c0 -247 -2 -449 -4 -449 -4 0 -305
304 -333 336 -10 12 -147 153 -304 315 -157 162 -307 317 -333 346 l-47 51 58
7 c32 3 65 8 73 9 47 11 306 4 398 -10z m-433 -376 l307 -313 -718 -3 c-394
-1 -719 0 -722 2 -9 9 109 154 195 238 136 135 245 214 401 293 81 40 205 93
224 95 3 0 144 -141 313 -312z m1207 33 c224 -179 401 -429 506 -713 l22 -58
-301 -305 c-166 -168 -304 -305 -308 -305 -3 0 -6 324 -6 720 0 396 3 720 7
720 4 0 40 -26 80 -59z m-1576 -538 c-5 -5 -234 -237 -509 -516 -421 -426
-502 -505 -508 -488 -18 48 -31 234 -26 361 9 201 57 409 132 575 l34 75 442
0 c243 0 439 -3 435 -7z m2167 -703 c0 -210 -10 -289 -58 -455 -26 -89 -89
-248 -108 -272 -7 -10 -105 -13 -428 -13 -231 0 -419 2 -419 3 0 5 724 725
875 870 119 115 120 116 129 89 4 -15 8 -115 9 -222z m-2514 -1002 c0 -181 -2
-328 -6 -328 -16 0 -127 93 -219 184 -158 158 -270 325 -353 526 l-39 95 96
100 c53 55 189 193 302 308 l205 207 6 -382 c3 -211 7 -530 8 -710z m321 290
c68 -73 166 -178 219 -233 110 -115 324 -342 494 -525 101 -108 114 -126 99
-135 -10 -6 -99 -9 -217 -9 -164 0 -219 4 -305 22 -128 26 -277 74 -362 116
l-63 31 -3 280 c-3 233 5 585 12 585 1 0 58 -60 126 -132z m1868 -276 c-173
-223 -424 -413 -683 -517 l-89 -36 -308 308 -308 308 712 5 c392 3 716 4 720
2 4 -2 -16 -33 -44 -70z"/>
<path d="M14490 17500 l0 -731 493 3 c469 4 496 5 570 26 149 41 238 106 289
210 30 61 33 74 33 162 -1 81 -5 103 -27 152 -35 76 -97 141 -169 177 l-58 29
52 40 c107 81 157 224 124 356 -36 145 -144 237 -332 282 -58 13 -149 17 -522
21 l-453 5 0 -732z m822 408 c53 -24 80 -71 75 -131 -5 -55 -25 -82 -82 -108
-34 -16 -67 -19 -222 -19 l-183 0 0 141 0 141 188 -4 c146 -3 195 -7 224 -20z
m58 -566 c111 -43 122 -192 18 -249 -28 -16 -64 -18 -260 -21 l-228 -3 0 145
0 146 213 -1 c175 0 220 -3 257 -17z"/>
<path d="M16020 17501 l0 -731 205 0 205 0 2 193 3 192 110 3 110 2 133 -195
133 -195 219 0 c121 0 220 1 220 3 0 1 -69 103 -154 226 l-153 225 56 36 c103
67 177 166 205 275 23 86 21 237 -4 317 -25 80 -83 172 -141 222 -24 20 -80
55 -124 77 -136 67 -169 71 -622 76 l-403 5 0 -731z m741 389 c116 -32 179
-140 150 -257 -17 -67 -47 -102 -109 -131 -52 -23 -67 -25 -211 -26 l-156 -1
-3 213 -2 212 147 0 c82 0 164 -5 184 -10z"/>
<path d="M17986 18178 c-352 -797 -616 -1397 -616 -1402 0 -3 94 -6 209 -6
l209 0 55 138 55 137 309 3 309 2 55 -137 56 -138 216 -3 216 -2 -14 32 c-33
79 -607 1374 -621 1399 l-15 29 -200 0 -200 0 -23 -52z m314 -588 c45 -113 84
-211 87 -217 4 -10 -35 -13 -176 -13 -100 0 -181 3 -181 7 0 22 175 442 181
436 4 -5 44 -100 89 -213z"/>
<path d="M19100 17500 l0 -730 205 0 205 0 0 730 0 730 -205 0 -205 0 0 -730z"/>
<path d="M19730 17500 l0 -730 205 0 205 0 2 381 3 382 315 -381 315 -382 173
0 172 0 0 730 0 730 -202 -2 -203 -3 -5 -381 -5 -381 -316 381 -315 381 -172
3 -172 2 0 -730z"/>
<path d="M9550 18011 c-97 -21 -254 -78 -353 -127 -351 -177 -692 -559 -761
-853 -8 -34 -19 -68 -25 -75 -7 -8 -41 -31 -78 -52 -138 -80 -294 -255 -376
-421 -64 -131 -127 -342 -143 -482 -7 -61 -10 -67 -72 -135 -204 -222 -314
-513 -337 -893 -8 -128 12 -304 50 -432 32 -109 109 -267 178 -364 l55 -79
-19 -56 c-46 -133 -54 -190 -54 -387 0 -212 9 -267 71 -433 113 -301 346 -556
641 -702 66 -32 74 -39 114 -108 186 -316 553 -558 954 -629 186 -32 447 -16
650 42 93 26 361 153 389 184 17 19 21 9 -76 191 -44 84 -66 138 -88 225 -19
73 -49 161 -63 183 -15 23 -105 61 -170 72 -79 12 -116 6 -157 -29 -27 -22
-33 -36 -37 -78 -5 -47 -3 -53 29 -88 31 -34 42 -39 103 -46 79 -10 125 -36
196 -110 59 -63 87 -122 69 -145 -28 -32 -197 -106 -300 -130 -135 -32 -179
-36 -345 -31 -182 4 -246 16 -388 69 -141 52 -259 126 -376 234 -39 36 -71 70
-71 74 0 4 24 11 53 15 315 40 607 266 657 510 22 106 22 128 -2 170 -31 52
-82 73 -139 56 -44 -13 -79 -58 -79 -101 0 -36 -36 -126 -70 -175 -63 -91
-191 -168 -343 -207 l-87 -22 -97 22 c-328 74 -630 343 -742 659 -24 69 -61
272 -61 336 0 95 60 352 90 392 4 6 12 26 18 46 13 48 -5 88 -67 154 -123 130
-209 332 -233 545 -10 94 -9 130 5 257 10 81 24 168 31 193 8 25 22 70 31 100
33 110 116 267 135 255 4 -3 11 -17 14 -32 13 -52 116 -248 172 -326 83 -117
156 -137 223 -61 50 56 44 93 -32 211 -84 130 -100 163 -137 280 -35 111 -49
256 -32 338 38 188 97 343 175 461 69 105 204 213 337 271 l60 26 22 -29 c67
-89 181 -172 281 -204 37 -12 40 -11 72 20 32 31 34 32 106 27 41 -3 101 -13
134 -22 59 -18 61 -18 112 4 48 21 52 26 58 64 20 127 69 296 127 435 17 40
28 75 26 77 -3 3 -23 -3 -46 -13 -47 -20 -67 -48 -82 -118 -18 -82 -80 -166
-156 -212 -95 -58 -226 -62 -326 -11 -130 66 -208 253 -164 390 54 164 305
390 561 506 134 61 213 82 369 100 44 5 159 -7 258 -27 34 -7 39 -4 75 32 21
22 69 65 107 96 l69 56 -34 14 c-154 63 -490 90 -659 53z"/>
<path d="M17415 16410 c-316 -42 -558 -233 -652 -515 -25 -73 -27 -94 -27
-235 0 -141 2 -162 27 -235 82 -247 276 -424 542 -496 115 -32 355 -32 470 0
108 29 228 90 309 157 280 231 347 652 155 970 -155 256 -486 398 -824 354z
m185 -341 c188 -30 316 -178 328 -378 8 -151 -32 -257 -134 -350 -85 -78 -206
-113 -319 -92 -133 25 -232 100 -288 219 -31 64 -32 72 -32 192 0 119 1 128
31 190 63 132 180 211 339 229 6 0 39 -4 75 -10z"/>
<path d="M21915 16413 c-221 -19 -410 -125 -483 -270 -80 -158 -63 -337 45
-453 77 -84 156 -120 378 -176 99 -24 208 -53 242 -65 105 -35 141 -104 88
-167 -34 -41 -99 -57 -225 -56 -129 1 -237 27 -369 90 -52 24 -98 41 -102 37
-3 -5 -34 -71 -68 -147 -50 -113 -59 -142 -49 -152 43 -42 227 -108 378 -135
112 -20 347 -18 445 4 282 65 445 257 421 497 -12 117 -63 200 -166 269 -71
47 -159 77 -383 131 -235 56 -287 87 -273 163 14 75 89 110 231 110 114 0 198
-18 320 -69 44 -19 82 -34 85 -34 3 0 13 19 22 43 9 23 36 90 61 150 l46 107
-60 30 c-142 72 -384 111 -584 93z"/>
<path d="M14386 16368 c11 -39 393 -1218 430 -1330 l36 -108 221 0 222 0 139
428 c77 235 142 433 146 440 3 7 68 -186 145 -428 l138 -440 221 0 222 0 194
598 c106 328 212 657 236 730 l42 132 -197 0 -197 0 -149 -457 c-81 -252 -151
-461 -154 -465 -3 -4 -71 202 -151 457 l-145 465 -191 0 -190 0 -148 -452
c-82 -249 -151 -456 -155 -461 -4 -4 -72 200 -152 453 l-144 460 -213 0 -213
0 7 -22z"/>
<path d="M18480 15661 l0 -731 210 0 210 0 0 195 0 195 109 0 109 0 133 -195
133 -195 218 0 c120 0 218 2 218 5 0 4 -67 104 -150 224 -82 120 -150 221
-150 225 0 3 24 21 53 39 97 63 170 160 203 272 25 84 23 239 -4 322 -54 167
-193 291 -389 345 -73 20 -106 22 -490 26 l-413 4 0 -731z m805 364 c66 -41
90 -89 90 -181 0 -60 -4 -77 -28 -112 -49 -74 -86 -86 -279 -90 l-168 -4 0
212 0 212 168 -4 c167 -3 169 -3 217 -33z"/>
<path d="M19950 15660 l0 -730 200 0 200 0 0 179 0 179 76 81 c42 45 79 81 83
81 3 0 98 -117 211 -260 l204 -260 239 0 c188 0 237 3 231 13 -4 6 -145 189
-312 406 l-304 394 40 41 c52 55 512 556 536 584 l19 22 -229 -1 -229 0 -280
-302 -280 -301 -3 302 -2 302 -200 0 -200 0 0 -730z"/>
<path d="M8335 14703 c-86 -20 -230 -86 -280 -130 -57 -50 -71 -114 -36 -167
44 -67 113 -74 190 -21 153 105 311 101 425 -11 127 -126 162 -422 76 -640
-38 -94 -88 -181 -145 -249 -69 -83 -80 -118 -51 -174 29 -56 107 -78 171 -49
54 25 199 243 251 378 22 57 27 60 57 34 80 -68 174 -119 292 -159 69 -23 85
-25 117 -16 54 17 88 62 88 118 0 77 -29 104 -143 134 -67 17 -151 74 -223
151 -63 67 -124 173 -124 214 0 13 -5 26 -11 30 -6 3 -9 14 -6 24 9 34 -11 50
-64 50 -49 0 -54 3 -117 63 -37 35 -92 78 -122 96 -30 18 -81 58 -112 89 -46
44 -61 68 -74 111 -11 37 -28 68 -54 93 -37 37 -55 42 -105 31z"/>
<path d="M14895 14569 c-140 -21 -274 -81 -354 -159 -163 -158 -167 -445 -9
-584 84 -73 192 -115 458 -176 187 -44 250 -79 250 -142 0 -68 -47 -102 -160
-118 -139 -20 -351 25 -496 105 l-61 33 -63 -141 c-34 -78 -64 -147 -67 -154
-12 -31 203 -117 367 -147 428 -76 777 48 867 307 24 71 24 214 0 284 -33 96
-134 185 -262 232 -33 13 -143 43 -244 67 -261 63 -296 81 -296 154 0 47 24
76 83 102 112 50 299 29 485 -55 37 -16 69 -28 71 -26 2 3 105 250 121 291 4
11 -14 24 -64 46 -171 77 -427 110 -626 81z"/>
<path d="M21445 14574 c-130 -19 -283 -77 -379 -143 -145 -100 -264 -283 -295
-455 -16 -86 -13 -246 5 -329 36 -164 148 -331 289 -433 243 -173 613 -200
891 -64 204 100 346 271 400 485 25 100 23 284 -5 388 -68 257 -276 457 -550
528 -74 20 -287 33 -356 23z m270 -365 c154 -57 258 -240 242 -427 -14 -168
-107 -297 -254 -352 -83 -31 -223 -26 -305 12 -237 110 -300 464 -119 670 44
49 138 104 203 118 61 13 168 3 233 -21z"/>
<path d="M15630 14385 l0 -165 225 0 225 0 0 -565 0 -565 205 0 205 0 0 565 0
565 220 0 220 0 0 165 0 165 -650 0 -650 0 0 -165z"/>
<path d="M16990 14103 c0 -265 4 -475 11 -513 25 -154 103 -301 203 -381 68
-55 175 -105 266 -126 90 -19 297 -22 389 -4 207 40 374 171 446 348 49 123
55 198 55 679 l0 444 -205 0 -205 0 0 -449 c0 -414 -2 -454 -19 -510 -38 -124
-116 -181 -246 -181 -38 0 -87 5 -108 11 -82 22 -148 113 -167 230 -5 37 -10
243 -10 482 l0 417 -205 0 -205 0 0 -447z"/>
<path d="M18570 13819 l0 -731 423 4 c418 5 423 5 521 31 281 75 471 255 533
505 23 93 23 304 -1 392 -50 186 -170 337 -337 425 -178 94 -260 105 -751 105
l-388 0 0 -731z m842 373 c164 -65 246 -202 236 -397 -8 -156 -81 -271 -209
-329 -80 -37 -142 -46 -310 -46 l-149 0 0 401 0 401 188 -4 c164 -4 194 -7
244 -26z"/>
<path d="M20210 13820 l0 -730 205 0 205 0 0 730 0 730 -205 0 -205 0 0 -730z"/>
</g>
</svg>
